<?xml version="1.0" standalone="no"?><!DOCTYPE svg PUBLIC "-//W3C//DTD SVG 1.1//EN" "http://www.w3.org/Graphics/SVG/1.1/DTD/svg11.dtd"><svg t="1741599989114" class="icon" viewBox="0 0 1024 1024" version="1.1" xmlns="http://www.w3.org/2000/svg" p-id="25763" xmlns:xlink="http://www.w3.org/1999/xlink" width="32" height="32"><path d="M563.392 86.272l361.856 199.04a64 64 0 0 1 0 112.128L563.392 596.48c-32 17.536-70.784 17.536-102.784 0L98.752 397.44a64 64 0 0 1 0-112.192l361.856-199.04a106.688 106.688 0 0 1 102.784 0zM501.76 161.024L173.888 341.312l327.808 180.352c6.4 3.52 14.208 3.52 20.608 0l327.808-180.352-327.808-180.288a21.312 21.312 0 0 0-20.608 0z" fill="#e3872d" fill-opacity=".9" p-id="25764"></path><path d="M897.472 495.552a42.688 42.688 0 0 1 39.68 75.52l-375.488 197.632a106.688 106.688 0 0 1-99.328 0L86.784 571.072a42.688 42.688 0 1 1 39.744-75.52l375.552 197.696a21.312 21.312 0 0 0 19.84 0l375.552-197.696z" fill="#e3872d" fill-opacity=".9" p-id="25765"></path><path d="M897.472 666.24a42.688 42.688 0 0 1 39.68 75.52l-375.488 197.632a106.688 106.688 0 0 1-99.328 0L86.784 741.76a42.688 42.688 0 0 1 39.744-75.52l375.552 197.632a21.312 21.312 0 0 0 19.84 0l375.552-197.632z" fill="#e3872d" fill-opacity=".9" p-id="25766"></path></svg>