<?xml version="1.0" standalone="no"?><!DOCTYPE svg PUBLIC "-//W3C//DTD SVG 1.1//EN" "http://www.w3.org/Graphics/SVG/1.1/DTD/svg11.dtd"><svg t="1741585864123" class="icon" viewBox="0 0 1024 1024" version="1.1" xmlns="http://www.w3.org/2000/svg" p-id="19291" xmlns:xlink="http://www.w3.org/1999/xlink" width="32" height="32"><path d="M810.666667 128H213.333333c-46.933333 0-85.333333 38.4-85.333333 85.333333v597.333334c0 46.933333 38.4 85.333333 85.333333 85.333333h597.333334c46.933333 0 85.333333-38.4 85.333333-85.333333V213.333333c0-46.933333-38.4-85.333333-85.333333-85.333333z m-358.4 484.821333H352.64L333.269333 682.666667H256l113.024-341.333334h66.816l113.792 341.333334h-77.994667l-19.370666-69.845334z m-83.712-57.472h67.584l-33.792-121.685333-33.792 121.685333zM632.362667 426.666667l2.005333 27.434666c15.872-19.84 36.650667-27.434667 62.336-27.434666 46.208 0 69.973333 28.202667 71.296 89.301333V682.666667h-70.570667v-161.749334c0-14.378667-2.261333-24.832-6.826666-31.317333s-12.544-9.728-23.978667-9.728c-12.757333 0-22.698667 6.186667-29.824 18.517333V682.666667h-70.570667v-256h66.133334z" p-id="19292" fill="#e3872d"></path></svg>