<?xml version="1.0" standalone="no"?><!DOCTYPE svg PUBLIC "-//W3C//DTD SVG 1.1//EN" "http://www.w3.org/Graphics/SVG/1.1/DTD/svg11.dtd"><svg t="1741585927398" class="icon" viewBox="0 0 1024 1024" version="1.1" xmlns="http://www.w3.org/2000/svg" p-id="24710" xmlns:xlink="http://www.w3.org/1999/xlink" width="32" height="32"><path d="M213.333333 128c-46.933333 0-85.333333 38.4-85.333333 85.333333v597.333334c0 46.933333 38.4 85.333333 85.333333 85.333333h597.333334c46.933333 0 85.333333-38.4 85.333333-85.333333V213.333333c0-46.933333-38.4-85.333333-85.333333-85.333333H213.333333z m80.64 213.333333h115.2c99.242667 0 111.061333 91.306667 111.061334 111.146667 0 79.36-55.509333 107.093333-107.136 107.093333H365.397333v119.082667H294.016V341.333333z m71.424 55.594667v107.136h47.701334c31.744 0 39.68-23.808 39.68-51.584 0-27.818667-11.861333-55.552-39.68-55.552H365.397333z m281.856 27.733333c59.52 0 91.264 35.754667 91.264 79.402667h-67.413333c0-19.84-7.978667-31.744-23.893333-31.744-11.861333 0-23.808 7.978667-23.808 23.850667 0 39.68 115.2 27.733333 115.2 115.072C738.56 670.762667 678.997333 682.666667 647.253333 682.666667c-63.488 0-95.232-43.648-95.232-83.328h63.488c0 31.744 23.808 35.754667 31.744 35.754666 15.872 0 27.733333-7.978667 27.733334-23.850666 0-35.712-115.157333-31.744-115.157334-111.146667 0-59.52 55.637333-75.434667 87.424-75.434667z" p-id="24711" fill="#e3872d"></path></svg>