<?xml version="1.0" standalone="no"?><!DOCTYPE svg PUBLIC "-//W3C//DTD SVG 1.1//EN" "http://www.w3.org/Graphics/SVG/1.1/DTD/svg11.dtd"><svg t="1741848938775" class="icon" viewBox="0 0 1024 1024" version="1.1" xmlns="http://www.w3.org/2000/svg" p-id="4072" xmlns:xlink="http://www.w3.org/1999/xlink" width="32" height="32"><path d="M972.44444444 89.3968254H55.72063492C23.21269841 89.3968254-2.7936508 108.9015873-2.7936508 141.40952381v585.14285714c0 26.00634921 26.00634921 52.01269841 52.01269842 52.01269842H972.44444444c26.00634921 0 52.01269841-26.00634921 52.01269841-52.01269842v-585.14285714c0-32.50793651-26.00634921-52.01269841-52.01269841-52.01269841z m-13.0031746 539.63174603H62.22222222V147.91111111h903.72063492v481.11746032z" p-id="4073" fill="#e3872d"></path><path d="M250.76825396 258.43809524a0.91428571 0.91428571 0 1 0 117.02857143 0 0.91428571 0.91428571 0 1 0-117.02857143 0zM543.33968254 394.97142857h247.06031746v169.04126984H543.33968254V394.97142857zM543.33968254 225.93015873h247.06031746v19.5047619H543.33968254v-19.5047619zM543.33968254 264.93968254h247.06031746V284.44444444H543.33968254v-19.5047619zM237.76507936 394.97142857H484.82539682V414.47619048H237.76507936v-19.50476191zM237.76507936 433.98095238H484.82539682v19.50476191H237.76507936v-19.50476191zM237.76507936 466.48888889H484.82539682v19.5047619H237.76507936v-19.5047619zM237.76507936 505.4984127H484.82539682v19.5047619H237.76507936v-19.5047619zM237.76507936 544.50793651H484.82539682v19.5047619H237.76507936V544.50793651zM686.37460317 882.59047619H614.85714285l-13.0031746-136.53333333H419.80952381l-13.00317461 136.53333333h-71.51746031c-26.00634921 0-45.51111111 32.50793651-45.51111112 58.51428571h435.60634921c6.5015873-19.5047619-13.0031746-58.51428571-39.00952381-58.51428571z" p-id="4074" fill="#e3872d"></path></svg>