<?xml version="1.0" standalone="no"?><!DOCTYPE svg PUBLIC "-//W3C//DTD SVG 1.1//EN" "http://www.w3.org/Graphics/SVG/1.1/DTD/svg11.dtd"><svg t="1740557031504" class="icon" viewBox="0 0 1024 1024" version="1.1" xmlns="http://www.w3.org/2000/svg" p-id="3361" xmlns:xlink="http://www.w3.org/1999/xlink" width="16" height="16"><path d="M503.3 800.5c-96.7-52-145.2-179-136.9-320 4.1-69.9 28.3-122.7 55.1-160.3L582 533l35 251-113.7 16.5z" fill="#FFF5CC" p-id="3362"></path><path d="M673.1 841.2c27.6-14.4 55.4-41.7 71.3-80.1 42.4-102.4-2.4-447.3-75.3-565-15.6-25.2-33.3-46.8-51.4-65.4-61.4-62.8-168.4-30.1-184.5 56.3-13.8 73.6-18 163.7 13.4 244.5 56.3 144.7 132.6 238.9 147.1 317.6l79.4 92.1z" fill="#FFFCEB" p-id="3363"></path><path d="M509.6 800.7c-9-24.5 25.3-47.7 88.4-48.2s96.6 21.4 96.6 44.5-82 117.8-135.1 137.4C506.4 954 483.3 954 457.9 954s-27.7-45 19.6-62.3c47.4-17.4 41.1-66.5 32.1-91z" fill="#2C4432" p-id="3364"></path><path d="M473.3 780.6c-1.6 0-3.2-0.4-4.7-1.2-44.8-24.1-81.7-65-106.4-118.2-2.3-5-0.2-11 4.8-13.3 5-2.3 11-0.2 13.3 4.8 22.9 49.2 56.8 86.9 97.8 109 4.9 2.6 6.7 8.7 4.1 13.5-1.9 3.5-5.3 5.4-8.9 5.4zM353.7 621.1c-4.3 0-8.3-2.8-9.6-7.1-1.3-4.4-2.6-9-3.8-13.3-1.5-5.3 1.7-10.8 7-12.3s10.8 1.7 12.3 7c1.2 4.3 2.4 8.7 3.6 12.8 1.6 5.3-1.4 10.9-6.7 12.5-0.9 0.3-1.8 0.4-2.8 0.4zM336.1 519c-5.3 0-9.7-4.1-10-9.5-1-20-1-40.1 0.2-59.6 3.6-61.8 22.8-117.4 56.9-165.5 3.2-4.5 9.4-5.6 13.9-2.4 4.5 3.2 5.6 9.4 2.4 13.9-31.9 44.9-49.9 97.1-53.3 155.1-1.1 18.8-1.2 38.1-0.2 57.4 0.3 5.5-3.9 10.2-9.5 10.5-0.1 0.1-0.2 0.1-0.4 0.1z" fill="#212121" p-id="3365"></path><path d="M563.7 729c-4.7 0-8.9-3.4-9.8-8.2-7.4-40.1-32.6-86.5-61.8-140.3-27.2-50.1-58-106.8-84.8-175.5-14.9-38.2-23-81.4-24.3-128.3-1.1-38.3 2.5-79.2 10.4-121.7 4.2-22.4 14.4-42.9 29.6-59.1 14.2-15.3 32.5-26.6 52.8-32.8 20.2-6.1 41.6-6.9 61.9-2.2 21.6 5.1 41.4 16.3 57.3 32.6 20.4 21 38.2 43.6 52.8 67.1 6.1 10 11.9 21 17.2 32.9 2.3 5 0 11-5 13.2-5 2.3-11 0-13.2-5-5-11.1-10.4-21.4-16-30.6-13.8-22.3-30.6-43.7-50-63.7-26.1-26.7-63.1-36.2-99-25.3-36 10.9-61.6 39.5-68.5 76.4-7.7 41.1-11.1 80.6-10.1 117.4 1.2 44.6 9 85.5 23 121.6 26.3 67.5 56.8 123.7 83.7 173.2 30 55.2 55.9 103 63.9 146.2 1 5.4-2.6 10.6-8 11.6-0.9 0.4-1.5 0.5-2.1 0.5zM643.1 821.2c-3.6 0-7.1-2-8.9-5.4-2.6-4.9-0.7-10.9 4.2-13.5 28.9-15.1 53.2-42.4 66.7-75.1 11.2-27 16.5-73.7 15.5-135-0.9-57.7-7.7-125.6-19-191.1-0.9-5.4 2.7-10.6 8.2-11.6 5.4-0.9 10.6 2.7 11.6 8.2 20.7 120.3 29.5 271.1 2.2 337.1-15.3 36.9-43 67.9-75.9 85.1-1.5 0.9-3 1.3-4.6 1.3z" fill="#212121" p-id="3366"></path><path d="M427.9 934c-14.1 0-24.8-9.3-27.3-23.6-3.4-19.1 8.8-45.4 43.5-58.1 17.5-6.4 27.6-18 30.8-35.3 3.4-18.7-2.7-37.6-4.7-42.9-3.7-10.1-2.3-20.7 4.1-29.8 13.5-19.6 48.6-31.5 93.7-31.8 57.9-0.5 83.8 16.6 94.1 26.8 8.2 8.2 12.6 17.7 12.6 27.7 0 21.9-41.9 67.9-50.3 76.8-46.7 50-79.4 65.5-91.3 69.9C478.2 934 453.8 934 427.9 934zM570 732.5h-1.9c-45.5 0.4-70.1 12.7-77.4 23.2-2.7 3.8-3.2 7.5-1.7 11.5 3.1 8.4 9.8 30.4 5.5 53.4-4.4 24.1-19.5 41.6-43.6 50.4-25.5 9.3-32.3 26.5-30.7 35.8 0.8 4.7 3.4 7.1 7.6 7.1 25.1 0 46.7 0 98.1-19 21.9-8.1 53.2-32.3 83.5-64.7 31.7-33.9 45-57.9 45-63.3 0-4.6-2.2-9.1-6.6-13.5-13.2-13.1-42.2-20.9-77.8-20.9z" fill="#212121" p-id="3367"></path><path d="M529 530c-5.1 0-9.5-3.9-10-9.1-2.4-27.7-17.2-60.2-32.9-94.6-15.2-33.3-30.9-67.8-36.9-101.5-5.2-29.2-2.8-64.6 7.1-105.3 7.3-30 16.1-51.4 16.5-52.3 2.1-5.1 7.9-7.5 13.1-5.4 5.1 2.1 7.5 7.9 5.4 13.1-0.3 0.8-33.7 83.2-22.4 146.4 5.6 31.2 20.8 64.5 35.5 96.7 16.4 36 31.9 70.1 34.7 101.2 0.5 5.5-3.6 10.4-9.1 10.8h-1z" fill="#FFF5CC" p-id="3368"></path></svg>